<mxfile host="Electron" agent="Mozilla/5.0 (X11; Linux x86_64) AppleWebKit/537.36 (KHTML, like Gecko) draw.io/24.7.17 Chrome/128.0.6613.186 Electron/32.2.2 Safari/537.36" version="24.7.17">
  <diagram name="Página-1" id="Q3MQK9eLE-fshYRaL-MQ">
    <mxGraphModel dx="1531" dy="937" grid="1" gridSize="10" guides="1" tooltips="1" connect="1" arrows="1" fold="1" page="1" pageScale="1" pageWidth="827" pageHeight="1169" math="0" shadow="0">
      <root>
        <mxCell id="Eu2buTDhop-BOXAHw6NF-0" />
        <mxCell id="Eu2buTDhop-BOXAHw6NF-1" parent="Eu2buTDhop-BOXAHw6NF-0" />
        <mxCell id="0c--Cq4GU_85b215walp-6" value="z" style="edgeStyle=orthogonalEdgeStyle;rounded=0;orthogonalLoop=1;jettySize=auto;html=1;" parent="Eu2buTDhop-BOXAHw6NF-1" source="0c--Cq4GU_85b215walp-0" target="0c--Cq4GU_85b215walp-5" edge="1">
          <mxGeometry relative="1" as="geometry" />
        </mxCell>
        <mxCell id="0c--Cq4GU_85b215walp-0" value="Nuevo Usuario" style="shape=umlActor;verticalLabelPosition=bottom;verticalAlign=top;html=1;outlineConnect=0;" parent="Eu2buTDhop-BOXAHw6NF-1" vertex="1">
          <mxGeometry x="37" y="645.75" width="30" height="60" as="geometry" />
        </mxCell>
        <mxCell id="PGBivgjFUVnGUzISr3lj-24" value="" style="edgeStyle=orthogonalEdgeStyle;rounded=0;orthogonalLoop=1;jettySize=auto;html=1;endArrow=open;endFill=0;dashed=1;" parent="Eu2buTDhop-BOXAHw6NF-1" source="0c--Cq4GU_85b215walp-5" target="PGBivgjFUVnGUzISr3lj-23" edge="1">
          <mxGeometry relative="1" as="geometry" />
        </mxCell>
        <mxCell id="Zx6hecj8KnLb3RLoXehq-21" value="&amp;lt;&amp;lt;include&amp;gt;&amp;gt;" style="edgeLabel;html=1;align=center;verticalAlign=middle;resizable=0;points=[];" parent="PGBivgjFUVnGUzISr3lj-24" vertex="1" connectable="0">
          <mxGeometry x="0.0855" y="3" relative="1" as="geometry">
            <mxPoint as="offset" />
          </mxGeometry>
        </mxCell>
        <mxCell id="0c--Cq4GU_85b215walp-5" value="Crear cuenta" style="ellipse;whiteSpace=wrap;html=1;verticalAlign=middle;align=center;" parent="Eu2buTDhop-BOXAHw6NF-1" vertex="1">
          <mxGeometry x="7" y="545.75" width="90" height="55" as="geometry" />
        </mxCell>
        <mxCell id="0c--Cq4GU_85b215walp-53" style="edgeStyle=orthogonalEdgeStyle;rounded=0;orthogonalLoop=1;jettySize=auto;html=1;" parent="Eu2buTDhop-BOXAHw6NF-1" source="0c--Cq4GU_85b215walp-8" target="0c--Cq4GU_85b215walp-15" edge="1">
          <mxGeometry relative="1" as="geometry">
            <Array as="points">
              <mxPoint x="152" y="247" />
            </Array>
          </mxGeometry>
        </mxCell>
        <mxCell id="0c--Cq4GU_85b215walp-54" style="edgeStyle=orthogonalEdgeStyle;rounded=0;orthogonalLoop=1;jettySize=auto;html=1;" parent="Eu2buTDhop-BOXAHw6NF-1" source="0c--Cq4GU_85b215walp-8" target="0c--Cq4GU_85b215walp-45" edge="1">
          <mxGeometry relative="1" as="geometry">
            <Array as="points">
              <mxPoint x="152" y="807" />
            </Array>
          </mxGeometry>
        </mxCell>
        <mxCell id="PGBivgjFUVnGUzISr3lj-27" value="" style="edgeStyle=orthogonalEdgeStyle;rounded=0;orthogonalLoop=1;jettySize=auto;html=1;" parent="Eu2buTDhop-BOXAHw6NF-1" source="0c--Cq4GU_85b215walp-8" target="PGBivgjFUVnGUzISr3lj-26" edge="1">
          <mxGeometry relative="1" as="geometry" />
        </mxCell>
        <mxCell id="PGBivgjFUVnGUzISr3lj-39" style="edgeStyle=orthogonalEdgeStyle;rounded=0;orthogonalLoop=1;jettySize=auto;html=1;entryX=0;entryY=0.5;entryDx=0;entryDy=0;" parent="Eu2buTDhop-BOXAHw6NF-1" source="0c--Cq4GU_85b215walp-8" target="PGBivgjFUVnGUzISr3lj-20" edge="1">
          <mxGeometry relative="1" as="geometry" />
        </mxCell>
        <mxCell id="vJx__80vHbVH02SjPqjo-4" style="edgeStyle=orthogonalEdgeStyle;rounded=0;orthogonalLoop=1;jettySize=auto;html=1;entryX=0;entryY=0.5;entryDx=0;entryDy=0;" parent="Eu2buTDhop-BOXAHw6NF-1" source="0c--Cq4GU_85b215walp-8" target="vJx__80vHbVH02SjPqjo-2" edge="1">
          <mxGeometry relative="1" as="geometry" />
        </mxCell>
        <mxCell id="0c--Cq4GU_85b215walp-8" value="Usuario" style="shape=umlActor;verticalLabelPosition=bottom;verticalAlign=top;html=1;outlineConnect=0;" parent="Eu2buTDhop-BOXAHw6NF-1" vertex="1">
          <mxGeometry x="137" y="407" width="30" height="60" as="geometry" />
        </mxCell>
        <mxCell id="9_rghuKC3j3RGYFYqaF6-5" style="edgeStyle=orthogonalEdgeStyle;rounded=0;orthogonalLoop=1;jettySize=auto;html=1;entryX=0;entryY=0.5;entryDx=0;entryDy=0;" parent="Eu2buTDhop-BOXAHw6NF-1" source="0c--Cq4GU_85b215walp-15" target="9_rghuKC3j3RGYFYqaF6-3" edge="1">
          <mxGeometry relative="1" as="geometry" />
        </mxCell>
        <mxCell id="0c--Cq4GU_85b215walp-15" value="Asesor" style="shape=umlActor;verticalLabelPosition=bottom;verticalAlign=top;html=1;outlineConnect=0;" parent="Eu2buTDhop-BOXAHw6NF-1" vertex="1">
          <mxGeometry x="192" y="217" width="30" height="60" as="geometry" />
        </mxCell>
        <mxCell id="PGBivgjFUVnGUzISr3lj-4" style="edgeStyle=orthogonalEdgeStyle;rounded=0;orthogonalLoop=1;jettySize=auto;html=1;entryX=0;entryY=0.5;entryDx=0;entryDy=0;dashed=1;endArrow=open;endFill=0;" parent="Eu2buTDhop-BOXAHw6NF-1" source="0c--Cq4GU_85b215walp-45" target="PGBivgjFUVnGUzISr3lj-3" edge="1">
          <mxGeometry relative="1" as="geometry">
            <Array as="points">
              <mxPoint x="207" y="694.5" />
            </Array>
          </mxGeometry>
        </mxCell>
        <mxCell id="Zx6hecj8KnLb3RLoXehq-9" value="&amp;lt;&amp;lt;extend&amp;gt;&amp;gt;" style="edgeLabel;html=1;align=center;verticalAlign=middle;resizable=0;points=[];" parent="PGBivgjFUVnGUzISr3lj-4" vertex="1" connectable="0">
          <mxGeometry x="-0.2753" relative="1" as="geometry">
            <mxPoint as="offset" />
          </mxGeometry>
        </mxCell>
        <mxCell id="Zx6hecj8KnLb3RLoXehq-4" value="" style="edgeStyle=orthogonalEdgeStyle;rounded=0;orthogonalLoop=1;jettySize=auto;html=1;dashed=1;endArrow=open;endFill=0;" parent="Eu2buTDhop-BOXAHw6NF-1" source="0c--Cq4GU_85b215walp-45" target="Q1BVSHCQuP1x_I5187WG-5" edge="1">
          <mxGeometry relative="1" as="geometry">
            <Array as="points">
              <mxPoint x="207" y="935.5" />
            </Array>
          </mxGeometry>
        </mxCell>
        <mxCell id="Zx6hecj8KnLb3RLoXehq-11" value="&amp;lt;&amp;lt;extend&amp;gt;&amp;gt;" style="edgeLabel;html=1;align=center;verticalAlign=middle;resizable=0;points=[];" parent="Zx6hecj8KnLb3RLoXehq-4" vertex="1" connectable="0">
          <mxGeometry x="-0.1564" y="-2" relative="1" as="geometry">
            <mxPoint as="offset" />
          </mxGeometry>
        </mxCell>
        <mxCell id="0c--Cq4GU_85b215walp-45" value="Alumno" style="shape=umlActor;verticalLabelPosition=bottom;verticalAlign=top;html=1;outlineConnect=0;" parent="Eu2buTDhop-BOXAHw6NF-1" vertex="1">
          <mxGeometry x="192" y="774.5" width="30" height="60" as="geometry" />
        </mxCell>
        <mxCell id="PGBivgjFUVnGUzISr3lj-6" style="edgeStyle=orthogonalEdgeStyle;rounded=0;orthogonalLoop=1;jettySize=auto;html=1;entryX=0;entryY=0.5;entryDx=0;entryDy=0;" parent="Eu2buTDhop-BOXAHw6NF-1" source="0c--Cq4GU_85b215walp-47" target="PGBivgjFUVnGUzISr3lj-0" edge="1">
          <mxGeometry relative="1" as="geometry" />
        </mxCell>
        <mxCell id="0c--Cq4GU_85b215walp-47" value="Líder de Equipo" style="shape=umlActor;verticalLabelPosition=bottom;verticalAlign=top;html=1;outlineConnect=0;" parent="Eu2buTDhop-BOXAHw6NF-1" vertex="1">
          <mxGeometry x="367" y="664.5" width="30" height="60" as="geometry" />
        </mxCell>
        <mxCell id="9_rghuKC3j3RGYFYqaF6-4" value="Agendar reuniones con el equipo" style="ellipse;whiteSpace=wrap;html=1;verticalAlign=middle;align=center;" parent="Eu2buTDhop-BOXAHw6NF-1" vertex="1">
          <mxGeometry x="397" y="218.25" width="100" height="57.5" as="geometry" />
        </mxCell>
        <mxCell id="9_rghuKC3j3RGYFYqaF6-7" value="" style="edgeStyle=orthogonalEdgeStyle;rounded=0;orthogonalLoop=1;jettySize=auto;html=1;entryX=0;entryY=0.5;entryDx=0;entryDy=0;" parent="Eu2buTDhop-BOXAHw6NF-1" source="0c--Cq4GU_85b215walp-15" target="9_rghuKC3j3RGYFYqaF6-3" edge="1">
          <mxGeometry relative="1" as="geometry">
            <mxPoint x="222" y="247" as="sourcePoint" />
            <mxPoint x="417" y="247" as="targetPoint" />
          </mxGeometry>
        </mxCell>
        <mxCell id="9_rghuKC3j3RGYFYqaF6-8" value="" style="edgeStyle=orthogonalEdgeStyle;rounded=0;orthogonalLoop=1;jettySize=auto;html=1;" parent="Eu2buTDhop-BOXAHw6NF-1" source="9_rghuKC3j3RGYFYqaF6-3" target="9_rghuKC3j3RGYFYqaF6-4" edge="1">
          <mxGeometry relative="1" as="geometry" />
        </mxCell>
        <mxCell id="Q1BVSHCQuP1x_I5187WG-10" value="&amp;lt;&amp;lt;include&amp;gt;&amp;gt;" style="edgeStyle=orthogonalEdgeStyle;rounded=0;orthogonalLoop=1;jettySize=auto;html=1;dashed=1;endArrow=open;endFill=0;" parent="Eu2buTDhop-BOXAHw6NF-1" source="9_rghuKC3j3RGYFYqaF6-3" target="Q1BVSHCQuP1x_I5187WG-9" edge="1">
          <mxGeometry relative="1" as="geometry">
            <Array as="points">
              <mxPoint x="312" y="155" />
            </Array>
          </mxGeometry>
        </mxCell>
        <mxCell id="9_rghuKC3j3RGYFYqaF6-3" value="Unirse a proyecto&amp;nbsp;" style="ellipse;whiteSpace=wrap;html=1;verticalAlign=middle;align=center;" parent="Eu2buTDhop-BOXAHw6NF-1" vertex="1">
          <mxGeometry x="267" y="219.5" width="90" height="55" as="geometry" />
        </mxCell>
        <mxCell id="PGBivgjFUVnGUzISr3lj-41" value="" style="edgeStyle=orthogonalEdgeStyle;rounded=0;orthogonalLoop=1;jettySize=auto;html=1;" parent="Eu2buTDhop-BOXAHw6NF-1" source="PGBivgjFUVnGUzISr3lj-0" target="PGBivgjFUVnGUzISr3lj-40" edge="1">
          <mxGeometry relative="1" as="geometry" />
        </mxCell>
        <mxCell id="PGBivgjFUVnGUzISr3lj-44" value="" style="edgeStyle=orthogonalEdgeStyle;rounded=0;orthogonalLoop=1;jettySize=auto;html=1;exitX=0.5;exitY=1;exitDx=0;exitDy=0;" parent="Eu2buTDhop-BOXAHw6NF-1" source="PGBivgjFUVnGUzISr3lj-0" target="PGBivgjFUVnGUzISr3lj-43" edge="1">
          <mxGeometry relative="1" as="geometry">
            <Array as="points">
              <mxPoint x="485" y="802.5" />
            </Array>
          </mxGeometry>
        </mxCell>
        <mxCell id="-abihIE500p0bfGIa6gH-3" value="" style="edgeStyle=orthogonalEdgeStyle;rounded=0;orthogonalLoop=1;jettySize=auto;html=1;exitX=0.5;exitY=0;exitDx=0;exitDy=0;" parent="Eu2buTDhop-BOXAHw6NF-1" source="PGBivgjFUVnGUzISr3lj-0" target="-abihIE500p0bfGIa6gH-2" edge="1">
          <mxGeometry relative="1" as="geometry">
            <Array as="points">
              <mxPoint x="485" y="594.5" />
            </Array>
          </mxGeometry>
        </mxCell>
        <mxCell id="PGBivgjFUVnGUzISr3lj-0" value="Gestionar proyecto" style="ellipse;whiteSpace=wrap;html=1;verticalAlign=middle;align=center;" parent="Eu2buTDhop-BOXAHw6NF-1" vertex="1">
          <mxGeometry x="440" y="667" width="90" height="55" as="geometry" />
        </mxCell>
        <mxCell id="PGBivgjFUVnGUzISr3lj-7" style="edgeStyle=orthogonalEdgeStyle;rounded=0;orthogonalLoop=1;jettySize=auto;html=1;" parent="Eu2buTDhop-BOXAHw6NF-1" source="PGBivgjFUVnGUzISr3lj-3" target="0c--Cq4GU_85b215walp-47" edge="1">
          <mxGeometry relative="1" as="geometry" />
        </mxCell>
        <mxCell id="PGBivgjFUVnGUzISr3lj-3" value="Crear proyecto" style="ellipse;whiteSpace=wrap;html=1;verticalAlign=middle;align=center;" parent="Eu2buTDhop-BOXAHw6NF-1" vertex="1">
          <mxGeometry x="237" y="667" width="90" height="55" as="geometry" />
        </mxCell>
        <mxCell id="PGBivgjFUVnGUzISr3lj-12" style="edgeStyle=orthogonalEdgeStyle;rounded=0;orthogonalLoop=1;jettySize=auto;html=1;entryX=0;entryY=0.5;entryDx=0;entryDy=0;" parent="Eu2buTDhop-BOXAHw6NF-1" source="PGBivgjFUVnGUzISr3lj-13" target="PGBivgjFUVnGUzISr3lj-14" edge="1">
          <mxGeometry relative="1" as="geometry" />
        </mxCell>
        <mxCell id="PGBivgjFUVnGUzISr3lj-13" value="Integrante de Equipo" style="shape=umlActor;verticalLabelPosition=bottom;verticalAlign=top;html=1;outlineConnect=0;" parent="Eu2buTDhop-BOXAHw6NF-1" vertex="1">
          <mxGeometry x="522" y="905.75" width="30" height="60" as="geometry" />
        </mxCell>
        <mxCell id="vJx__80vHbVH02SjPqjo-7" value="" style="edgeStyle=orthogonalEdgeStyle;rounded=0;orthogonalLoop=1;jettySize=auto;html=1;endArrow=open;endFill=0;dashed=1;" parent="Eu2buTDhop-BOXAHw6NF-1" source="PGBivgjFUVnGUzISr3lj-14" target="vJx__80vHbVH02SjPqjo-6" edge="1">
          <mxGeometry relative="1" as="geometry" />
        </mxCell>
        <mxCell id="Zx6hecj8KnLb3RLoXehq-12" value="&amp;lt;&amp;lt;include&amp;gt;&amp;gt;" style="edgeLabel;html=1;align=center;verticalAlign=middle;resizable=0;points=[];" parent="vJx__80vHbVH02SjPqjo-7" vertex="1" connectable="0">
          <mxGeometry x="-0.1805" y="1" relative="1" as="geometry">
            <mxPoint as="offset" />
          </mxGeometry>
        </mxCell>
        <mxCell id="PGBivgjFUVnGUzISr3lj-14" value="Gestionar activades asignadas" style="ellipse;whiteSpace=wrap;html=1;verticalAlign=middle;align=center;" parent="Eu2buTDhop-BOXAHw6NF-1" vertex="1">
          <mxGeometry x="602" y="908.25" width="90" height="55" as="geometry" />
        </mxCell>
        <mxCell id="PGBivgjFUVnGUzISr3lj-15" style="edgeStyle=orthogonalEdgeStyle;rounded=0;orthogonalLoop=1;jettySize=auto;html=1;" parent="Eu2buTDhop-BOXAHw6NF-1" source="PGBivgjFUVnGUzISr3lj-16" target="PGBivgjFUVnGUzISr3lj-13" edge="1">
          <mxGeometry relative="1" as="geometry" />
        </mxCell>
        <mxCell id="PGBivgjFUVnGUzISr3lj-16" value="Agregado a proyecto" style="ellipse;whiteSpace=wrap;html=1;verticalAlign=middle;align=center;" parent="Eu2buTDhop-BOXAHw6NF-1" vertex="1">
          <mxGeometry x="382" y="908.25" width="90" height="55" as="geometry" />
        </mxCell>
        <mxCell id="vJx__80vHbVH02SjPqjo-1" value="&amp;lt;&amp;lt;include&amp;gt;&amp;gt;" style="edgeStyle=orthogonalEdgeStyle;rounded=0;orthogonalLoop=1;jettySize=auto;html=1;endArrow=open;endFill=0;dashed=1;" parent="Eu2buTDhop-BOXAHw6NF-1" source="PGBivgjFUVnGUzISr3lj-20" target="vJx__80vHbVH02SjPqjo-0" edge="1">
          <mxGeometry relative="1" as="geometry" />
        </mxCell>
        <mxCell id="PGBivgjFUVnGUzISr3lj-20" value="Actualizar datos de perfil y cuenta" style="ellipse;whiteSpace=wrap;html=1;verticalAlign=middle;align=center;" parent="Eu2buTDhop-BOXAHw6NF-1" vertex="1">
          <mxGeometry x="237" y="487" width="100" height="57.5" as="geometry" />
        </mxCell>
        <mxCell id="Zx6hecj8KnLb3RLoXehq-20" style="edgeStyle=orthogonalEdgeStyle;rounded=0;orthogonalLoop=1;jettySize=auto;html=1;exitX=1;exitY=0.5;exitDx=0;exitDy=0;" parent="Eu2buTDhop-BOXAHw6NF-1" source="PGBivgjFUVnGUzISr3lj-23" target="0c--Cq4GU_85b215walp-8" edge="1">
          <mxGeometry relative="1" as="geometry" />
        </mxCell>
        <mxCell id="PGBivgjFUVnGUzISr3lj-23" value="Validar Correo" style="ellipse;whiteSpace=wrap;html=1;verticalAlign=middle;align=center;" parent="Eu2buTDhop-BOXAHw6NF-1" vertex="1">
          <mxGeometry x="7" y="409.5" width="90" height="55" as="geometry" />
        </mxCell>
        <mxCell id="PGBivgjFUVnGUzISr3lj-30" value="&amp;lt;&amp;lt;include&amp;gt;&amp;gt;" style="edgeStyle=orthogonalEdgeStyle;rounded=0;orthogonalLoop=1;jettySize=auto;html=1;endArrow=open;endFill=0;dashed=1;" parent="Eu2buTDhop-BOXAHw6NF-1" source="PGBivgjFUVnGUzISr3lj-26" target="PGBivgjFUVnGUzISr3lj-28" edge="1">
          <mxGeometry relative="1" as="geometry" />
        </mxCell>
        <mxCell id="PGBivgjFUVnGUzISr3lj-26" value="Iniciar sesión" style="ellipse;whiteSpace=wrap;html=1;verticalAlign=middle;align=center;" parent="Eu2buTDhop-BOXAHw6NF-1" vertex="1">
          <mxGeometry x="237" y="409.5" width="90" height="55" as="geometry" />
        </mxCell>
        <mxCell id="PGBivgjFUVnGUzISr3lj-28" value="Validar Credenciales" style="ellipse;whiteSpace=wrap;html=1;verticalAlign=middle;align=center;" parent="Eu2buTDhop-BOXAHw6NF-1" vertex="1">
          <mxGeometry x="423" y="408.25" width="100" height="57.5" as="geometry" />
        </mxCell>
        <mxCell id="5M0Ydp9KJkjTWztyCfgb-0" value="&amp;lt;&amp;lt;include&amp;gt;&amp;gt;" style="edgeStyle=orthogonalEdgeStyle;rounded=0;orthogonalLoop=1;jettySize=auto;html=1;endArrow=open;endFill=0;dashed=1;" parent="Eu2buTDhop-BOXAHw6NF-1" source="PGBivgjFUVnGUzISr3lj-40" target="e3v-rX-F-pmXQ6O5jwZ3-2" edge="1">
          <mxGeometry relative="1" as="geometry" />
        </mxCell>
        <mxCell id="PGBivgjFUVnGUzISr3lj-40" value="Eliminar Integrantes" style="ellipse;whiteSpace=wrap;html=1;verticalAlign=middle;align=center;" parent="Eu2buTDhop-BOXAHw6NF-1" vertex="1">
          <mxGeometry x="560" y="665.75" width="90" height="55" as="geometry" />
        </mxCell>
        <mxCell id="5M0Ydp9KJkjTWztyCfgb-2" value="&amp;lt;&amp;lt;include&amp;gt;&amp;gt;" style="edgeStyle=orthogonalEdgeStyle;rounded=0;orthogonalLoop=1;jettySize=auto;html=1;endArrow=open;endFill=0;dashed=1;" parent="Eu2buTDhop-BOXAHw6NF-1" source="PGBivgjFUVnGUzISr3lj-43" target="5M0Ydp9KJkjTWztyCfgb-1" edge="1">
          <mxGeometry relative="1" as="geometry" />
        </mxCell>
        <mxCell id="PGBivgjFUVnGUzISr3lj-43" value="Actualizar Proyecto" style="ellipse;whiteSpace=wrap;html=1;verticalAlign=middle;align=center;" parent="Eu2buTDhop-BOXAHw6NF-1" vertex="1">
          <mxGeometry x="560" y="773.25" width="90" height="55" as="geometry" />
        </mxCell>
        <mxCell id="5M0Ydp9KJkjTWztyCfgb-3" value="&amp;lt;&amp;lt;include&amp;gt;&amp;gt;" style="edgeStyle=orthogonalEdgeStyle;rounded=0;orthogonalLoop=1;jettySize=auto;html=1;endArrow=open;endFill=0;dashed=1;" parent="Eu2buTDhop-BOXAHw6NF-1" source="-abihIE500p0bfGIa6gH-2" target="-abihIE500p0bfGIa6gH-4" edge="1">
          <mxGeometry relative="1" as="geometry" />
        </mxCell>
        <mxCell id="-abihIE500p0bfGIa6gH-2" value="Agregar Integrantes" style="ellipse;whiteSpace=wrap;html=1;verticalAlign=middle;align=center;" parent="Eu2buTDhop-BOXAHw6NF-1" vertex="1">
          <mxGeometry x="560" y="560.75" width="90" height="60" as="geometry" />
        </mxCell>
        <mxCell id="-abihIE500p0bfGIa6gH-4" value="Panel de Solicitudes" style="ellipse;whiteSpace=wrap;html=1;verticalAlign=middle;align=center;" parent="Eu2buTDhop-BOXAHw6NF-1" vertex="1">
          <mxGeometry x="730" y="560.75" width="90" height="60" as="geometry" />
        </mxCell>
        <mxCell id="e3v-rX-F-pmXQ6O5jwZ3-2" value="Panel de Integrantes" style="ellipse;whiteSpace=wrap;html=1;verticalAlign=middle;align=center;" parent="Eu2buTDhop-BOXAHw6NF-1" vertex="1">
          <mxGeometry x="730" y="663.25" width="90" height="60" as="geometry" />
        </mxCell>
        <mxCell id="vJx__80vHbVH02SjPqjo-0" value="Panel de Gestión de Cuenta" style="ellipse;whiteSpace=wrap;html=1;verticalAlign=middle;align=center;" parent="Eu2buTDhop-BOXAHw6NF-1" vertex="1">
          <mxGeometry x="429" y="485.75" width="106" height="60" as="geometry" />
        </mxCell>
        <mxCell id="vJx__80vHbVH02SjPqjo-5" value="&amp;lt;&amp;lt;include&amp;gt;&amp;gt;" style="edgeStyle=orthogonalEdgeStyle;rounded=0;orthogonalLoop=1;jettySize=auto;html=1;endArrow=open;endFill=0;dashed=1;" parent="Eu2buTDhop-BOXAHw6NF-1" source="vJx__80vHbVH02SjPqjo-2" target="vJx__80vHbVH02SjPqjo-3" edge="1">
          <mxGeometry relative="1" as="geometry" />
        </mxCell>
        <mxCell id="vJx__80vHbVH02SjPqjo-2" value="Buscar proyectos" style="ellipse;whiteSpace=wrap;html=1;verticalAlign=middle;align=center;" parent="Eu2buTDhop-BOXAHw6NF-1" vertex="1">
          <mxGeometry x="237" y="317" width="100" height="60" as="geometry" />
        </mxCell>
        <mxCell id="vJx__80vHbVH02SjPqjo-3" value="Panel de Búsqueda de Proyecto" style="ellipse;whiteSpace=wrap;html=1;verticalAlign=middle;align=center;" parent="Eu2buTDhop-BOXAHw6NF-1" vertex="1">
          <mxGeometry x="429" y="317" width="106" height="60" as="geometry" />
        </mxCell>
        <mxCell id="vJx__80vHbVH02SjPqjo-6" value="Kaban" style="ellipse;whiteSpace=wrap;html=1;verticalAlign=middle;align=center;" parent="Eu2buTDhop-BOXAHw6NF-1" vertex="1">
          <mxGeometry x="708" y="987" width="90" height="55" as="geometry" />
        </mxCell>
        <mxCell id="5M0Ydp9KJkjTWztyCfgb-1" value="Panel Gestión de Proyecto" style="ellipse;whiteSpace=wrap;html=1;verticalAlign=middle;align=center;" parent="Eu2buTDhop-BOXAHw6NF-1" vertex="1">
          <mxGeometry x="730" y="773.25" width="90" height="55" as="geometry" />
        </mxCell>
        <mxCell id="Zx6hecj8KnLb3RLoXehq-5" value="" style="edgeStyle=orthogonalEdgeStyle;rounded=0;orthogonalLoop=1;jettySize=auto;html=1;" parent="Eu2buTDhop-BOXAHw6NF-1" source="Q1BVSHCQuP1x_I5187WG-5" target="PGBivgjFUVnGUzISr3lj-16" edge="1">
          <mxGeometry relative="1" as="geometry" />
        </mxCell>
        <mxCell id="Q1BVSHCQuP1x_I5187WG-5" value="Solicitud de Admisión de Proyecto" style="ellipse;whiteSpace=wrap;html=1;verticalAlign=middle;align=center;" parent="Eu2buTDhop-BOXAHw6NF-1" vertex="1">
          <mxGeometry x="237" y="907" width="100" height="57.5" as="geometry" />
        </mxCell>
        <mxCell id="Q1BVSHCQuP1x_I5187WG-12" value="&amp;lt;&amp;lt;include&amp;gt;&amp;gt;" style="edgeStyle=orthogonalEdgeStyle;rounded=0;orthogonalLoop=1;jettySize=auto;html=1;entryX=0;entryY=0.5;entryDx=0;entryDy=0;endArrow=open;endFill=0;dashed=1;" parent="Eu2buTDhop-BOXAHw6NF-1" source="Q1BVSHCQuP1x_I5187WG-9" target="Q1BVSHCQuP1x_I5187WG-11" edge="1">
          <mxGeometry relative="1" as="geometry" />
        </mxCell>
        <mxCell id="Q1BVSHCQuP1x_I5187WG-9" value="Visualizar Progreso de Proyecto" style="ellipse;whiteSpace=wrap;html=1;verticalAlign=middle;align=center;" parent="Eu2buTDhop-BOXAHw6NF-1" vertex="1">
          <mxGeometry x="408" y="127" width="90" height="55" as="geometry" />
        </mxCell>
        <mxCell id="Q1BVSHCQuP1x_I5187WG-11" value="Mostar Avances" style="ellipse;whiteSpace=wrap;html=1;verticalAlign=middle;align=center;" parent="Eu2buTDhop-BOXAHw6NF-1" vertex="1">
          <mxGeometry x="587" y="127" width="90" height="55" as="geometry" />
        </mxCell>
        <mxCell id="Zx6hecj8KnLb3RLoXehq-25" value="Nota: Un líder o integrante de equipo no puede hacer las operaciones de alumno (crear proyecto y solicitud de admisión)" style="text;html=1;align=center;verticalAlign=middle;whiteSpace=wrap;rounded=0;" parent="Eu2buTDhop-BOXAHw6NF-1" vertex="1">
          <mxGeometry x="277" y="789.5" width="186" height="87.5" as="geometry" />
        </mxCell>
      </root>
    </mxGraphModel>
  </diagram>
</mxfile>
